<svg width="161" height="26" viewBox="0 0 161 26" fill="none" xmlns="http://www.w3.org/2000/svg">
<g clip-path="url(#clip0)">
<path fill-rule="evenodd" clip-rule="evenodd" d="M21.4489 24.7915V1.11813H16.3494V15.9892L5.25145 1.11813H0.00549316V24.7915H5.10738V9.35271L16.5287 24.7915H21.4489ZM58.4204 24.7915V5.55448H65.3889V1.11813H46.2842V5.55448H53.2864V24.7915H58.4228H58.4204ZM74.4762 24.7915V1.11813H69.3766V24.7915H74.477H74.4762ZM85.0362 24.7915V14.9956H96.6368V10.5593H85.037V5.55448H96.8889V1.11813H79.9367V24.7915H85.037H85.0362ZM106.264 24.7915V1.11813H101.166V24.7915H106.265H106.264ZM123.325 25.2174C125.37 25.2705 127.391 24.7544 129.16 23.7267C130.93 22.6989 132.379 21.1999 133.347 19.3968L128.962 17.3031C128.422 18.3336 127.612 19.1983 126.62 19.805C125.627 20.4117 124.488 20.7376 123.325 20.7482C118.979 20.7482 115.819 17.4471 115.819 12.9756C115.819 8.50397 118.979 5.20293 123.325 5.20293C124.487 5.22073 125.622 5.54973 126.614 6.15565C127.605 6.76156 128.416 7.62224 128.962 8.64803L133.347 6.51833C132.381 4.71594 130.931 3.21896 129.161 2.19599C127.39 1.17301 125.369 0.664668 123.325 0.728204C116.142 0.728204 110.575 5.69699 110.575 12.9724C110.575 20.2479 116.142 25.2174 123.325 25.2174H123.325ZM148.468 25.2174C155.724 25.2174 161.003 20.1069 161.003 12.9732C161.003 5.83949 155.724 0.728204 148.469 0.728204C141.25 0.728204 135.971 5.83871 135.971 12.9724C135.971 20.1061 141.25 25.2174 148.469 25.2174H148.468ZM148.468 20.7458C144.051 20.7458 141.213 17.3743 141.213 12.9732C141.213 8.53685 144.051 5.20058 148.468 5.20058C152.886 5.20058 155.76 8.53685 155.76 12.9732C155.76 17.3735 152.887 20.749 148.469 20.749L148.468 20.7458Z" fill="#172B43"/>
<path fill-rule="evenodd" clip-rule="evenodd" d="M36.3193 16.6226C41.9019 16.6226 46.2153 19.8633 47.5315 24.7139H42.4617C41.9646 23.5049 41.1098 22.4768 40.012 21.7673C38.9142 21.0578 37.6257 20.7008 36.3193 20.7442C35.016 20.6997 33.7305 21.0567 32.6367 21.7666C31.5429 22.4766 30.6935 23.5054 30.2034 24.7139H25.1399C26.4561 19.8633 30.764 16.6226 36.3193 16.6226Z" fill="#0084E9"/>
<path fill-rule="evenodd" clip-rule="evenodd" d="M36.558 10.0401L34.2819 14.5117C31.9334 14.8492 29.7135 15.7938 27.8419 17.2522L36.2488 0L44.9594 17.0298C43.1544 15.7036 41.0518 14.8401 38.8357 14.5149L36.558 10.0401Z" fill="#C94390"/>
</g>
<defs>
<clipPath id="clip0">
<rect width="161" height="25.0553" fill="white"/>
</clipPath>
</defs>
</svg>
