<svg width="48" height="48" viewBox="0 0 48 48" fill="none" xmlns="http://www.w3.org/2000/svg">
<path d="M38.8036 12.5448L28.2567 2.13853L16.5938 13.8014L11.7343 8.94206L3.75 16.7398V0H0V48H48V3.34837L38.8036 12.5448ZM36.152 15.1963L20.9502 30.445L18.3227 27.829L33.5363 12.6155L36.152 15.1963ZM28.2745 7.42397L30.8667 9.98156L15.6652 25.1831L13.0846 22.614L28.2745 7.42397ZM3.75 21.9816L11.7032 14.2142L13.942 16.4531L3.75 26.6452V21.9816ZM44.25 44.25H3.75V31.9486L10.4329 25.2656L20.956 35.7424L24.9311 31.7673L29.8099 36.6931L44.25 22.1701V44.25ZM44.25 16.8515L29.815 31.3693L27.5595 29.0921L44.25 12.4016V16.8515Z" fill="#0084E9"/>
<path d="M38.8036 12.5448L28.2567 2.13853L16.5938 13.8014L11.7343 8.94206L3.75 16.7398V0H0V48H48V3.34837L38.8036 12.5448ZM36.152 15.1963L20.9502 30.445L18.3227 27.829L33.5363 12.6155L36.152 15.1963ZM28.2745 7.42397L30.8667 9.98156L15.6652 25.1831L13.0846 22.614L28.2745 7.42397ZM3.75 21.9816L11.7032 14.2142L13.942 16.4531L3.75 26.6452V21.9816ZM44.25 44.25H3.75V31.9486L10.4329 25.2656L20.956 35.7424L24.9311 31.7673L29.8099 36.6931L44.25 22.1701V44.25ZM44.25 16.8515L29.815 31.3693L27.5595 29.0921L44.25 12.4016V16.8515Z" fill="#C94390"/>
</svg>
