<svg width="48" height="48" viewBox="0 0 48 48" fill="none" xmlns="http://www.w3.org/2000/svg">
<path d="M46.6007 11.3434C45.6724 9.10217 44.3324 7.09644 42.6182 5.38184C40.9039 3.6676 38.8978 2.32764 36.6566 1.39929C34.4154 0.470581 32.0493 0 29.625 0H27.75V20.25H48V18.375C48 15.9507 47.5294 13.5846 46.6007 11.3434ZM35.0544 4.80469L31.5 8.35913V3.87305C32.7202 4.03345 33.9155 4.34875 35.0544 4.80469ZM31.5 13.6626L38.4474 6.71521C38.9824 7.11768 39.4904 7.5575 39.9664 8.03357C40.4421 8.50928 40.882 9.01758 41.2848 9.55225L34.3374 16.5H31.5V13.6626ZM39.6405 16.5L43.1949 12.9456C43.6509 14.0845 43.9666 15.2798 44.127 16.5H39.6405ZM24 3.75H22.125C16.2151 3.75 10.6589 6.05127 6.4801 10.2301C2.30127 14.4089 0 19.9651 0 25.875C0 31.7849 2.30127 37.3411 6.4801 41.5199C10.6589 45.6987 16.2151 48 22.125 48C28.0349 48 33.5911 45.6987 37.7699 41.5199C41.9487 37.3411 44.25 31.7849 44.25 25.875V24H24V3.75ZM40.4052 27.75C39.4633 37.0049 31.6245 44.25 22.125 44.25C11.993 44.25 3.75 36.007 3.75 25.875C3.75 16.3755 10.9951 8.53674 20.25 7.59485V27.75H40.4052Z" fill="#0084E9"/>
</svg>
