<svg width="48" height="48" viewBox="0 0 48 48" fill="none" xmlns="http://www.w3.org/2000/svg">
<path d="M33 27.8438C37.1355 27.8438 40.5 24.4792 40.5 20.3438C40.5 16.2083 37.1355 12.8438 33 12.8438C28.8645 12.8438 25.5 16.2083 25.5 20.3438C25.5 24.4792 28.8645 27.8438 33 27.8438ZM33 16.5938V20.3438H36.75C36.75 22.4115 35.0677 24.0938 33 24.0938C30.9323 24.0938 29.25 22.4115 29.25 20.3438C29.25 18.276 30.9323 16.5938 33 16.5938Z" fill="#0084E9"/>
<path d="M22.125 11.3438H18.375V26.5312H16.5V18.8438H12.75V26.5312H10.875V15.0938H7.125V30.2812H22.125V11.3438Z" fill="#0084E9"/>
<path d="M25.875 3.84375V0H22.125V3.84375H0V32.1562C0 35.2579 2.52338 37.7812 5.625 37.7812H22.125V44.25H14.625V48H33.375V44.25H25.875V37.7812H42.375C45.4766 37.7812 48 35.2579 48 32.1562V3.84375H25.875ZM44.25 32.1562C44.25 33.1901 43.4089 34.0312 42.375 34.0312H5.625C4.59113 34.0312 3.75 33.1901 3.75 32.1562V7.59375H44.25V32.1562Z" fill="#0084E9"/>
</svg>
