<svg width="48" height="48" viewBox="0 0 48 48" fill="none" xmlns="http://www.w3.org/2000/svg">
<path d="M10.9939 30.2188V47.9837H14.7414L14.7413 26.3989L10.9939 30.2188Z" fill="#0084E9"/>
<path d="M18.3018 47.9838H22.0491V28.8111L18.3018 25.0638V47.9838Z" fill="#0084E9"/>
<path d="M3.59302 47.9837H7.34049V33.9435L3.59302 37.7637V47.9837Z" fill="#0084E9"/>
<path d="M36.7576 0.0162506V3.76372H41.6963L24.6487 20.8115L17.0873 13.2502L0 30.8454L2.68837 33.4561L17.1265 18.589L24.6487 26.1112L44.2525 6.50731V11.165H48V0.0162506H36.7576Z" fill="#0084E9"/>
<path d="M40.4111 15.6481V47.9838H44.1586V15.0998H40.9595L40.4111 15.6481Z" fill="#0084E9"/>
<path d="M25.6089 47.9837H29.3564V26.7031L25.6089 30.4506V47.9837Z" fill="#0084E9"/>
<path d="M33.0103 47.9838H36.7576V19.3019L33.0103 23.0493V47.9838Z" fill="#0084E9"/>
</svg>
