<svg width="48" height="48" viewBox="0 0 48 48" fill="none" xmlns="http://www.w3.org/2000/svg">
<g clip-path="url(#clip0)">
<path d="M42.375 0H5.625C2.52319 0 0 2.52319 0 5.625V30.9375C0 34.0393 2.52319 36.5625 5.625 36.5625H42.375C45.4768 36.5625 48 34.0393 48 30.9375V5.625C48 2.52319 45.4768 0 42.375 0ZM44.25 30.9375C44.25 31.9713 43.4088 32.8125 42.375 32.8125H5.625C4.59119 32.8125 3.75 31.9713 3.75 30.9375V5.625C3.75 4.59119 4.59119 3.75 5.625 3.75H42.375C43.4088 3.75 44.25 4.59119 44.25 5.625V30.9375ZM15.8478 42.2812H48V46.0312H15.9569C15.3226 47.2035 14.0826 48 12.6562 48C11.2299 48 9.98987 47.2035 9.35559 46.0312H0V42.2812H9.46472C10.1254 41.2126 11.3075 40.5 12.6562 40.5C14.005 40.5 15.1871 41.2126 15.8478 42.2812ZM16.5 28.2803L33.5599 18.4219L16.5 8.56348V28.2803ZM20.25 15.0615L26.0651 18.4219L20.25 21.7822V15.0615Z" fill="#0084E9"/>
<path d="M42.375 0H5.625C2.52319 0 0 2.52319 0 5.625V30.9375C0 34.0393 2.52319 36.5625 5.625 36.5625H42.375C45.4768 36.5625 48 34.0393 48 30.9375V5.625C48 2.52319 45.4768 0 42.375 0ZM44.25 30.9375C44.25 31.9713 43.4088 32.8125 42.375 32.8125H5.625C4.59119 32.8125 3.75 31.9713 3.75 30.9375V5.625C3.75 4.59119 4.59119 3.75 5.625 3.75H42.375C43.4088 3.75 44.25 4.59119 44.25 5.625V30.9375ZM15.8478 42.2812H48V46.0312H15.9569C15.3226 47.2035 14.0826 48 12.6562 48C11.2299 48 9.98987 47.2035 9.35559 46.0312H0V42.2812H9.46472C10.1254 41.2126 11.3075 40.5 12.6562 40.5C14.005 40.5 15.1871 41.2126 15.8478 42.2812ZM16.5 28.2803L33.5599 18.4219L16.5 8.56348V28.2803ZM20.25 15.0615L26.0651 18.4219L20.25 21.7822V15.0615Z" fill="#C94390"/>
</g>
<defs>
<clipPath id="clip0">
<rect width="48" height="48" fill="white"/>
</clipPath>
</defs>
</svg>
